<svg xmlns="http://www.w3.org/2000/svg" width="1200" height="800" viewBox="0 0 1200 800" role="img" aria-labelledby="title desc">
<title id="title">yimsg product overview</title><desc id="desc">A self-hosted server, embedded chat interface, code integration, and responsive mobile chat.</desc>
<defs>
  <linearGradient id="brandGrad" x1="0" y1="0" x2="1" y2="1">
    <stop offset="0" stop-color="#5B5BF0"/>
    <stop offset="1" stop-color="#7B61FF"/>
  </linearGradient>
  <linearGradient id="brandCyan" x1="0" y1="0" x2="1" y2="1">
    <stop offset="0" stop-color="#6C63FF"/>
    <stop offset="1" stop-color="#22C2D6"/>
  </linearGradient>
  <linearGradient id="softBg" x1="0" y1="0" x2="1" y2="1">
    <stop offset="0" stop-color="#FBFBFF"/>
    <stop offset="0.55" stop-color="#F6F5FF"/>
    <stop offset="1" stop-color="#F1FBFC"/>
  </linearGradient>
  <linearGradient id="darkGrad" x1="0" y1="0" x2="1" y2="1">
    <stop offset="0" stop-color="#151A2B"/>
    <stop offset="1" stop-color="#252C43"/>
  </linearGradient>
  <filter id="shadowLg" x="-40%" y="-40%" width="180%" height="180%">
    <feDropShadow dx="0" dy="18" stdDeviation="24" flood-color="#18203A" flood-opacity="0.16"/>
  </filter>
  <filter id="shadowMd" x="-40%" y="-40%" width="180%" height="180%">
    <feDropShadow dx="0" dy="10" stdDeviation="14" flood-color="#18203A" flood-opacity="0.12"/>
  </filter>
  <filter id="shadowSm" x="-40%" y="-40%" width="180%" height="180%">
    <feDropShadow dx="0" dy="5" stdDeviation="8" flood-color="#18203A" flood-opacity="0.10"/>
  </filter>
  <pattern id="dotPattern" width="28" height="28" patternUnits="userSpaceOnUse">
    <circle cx="2" cy="2" r="1.4" fill="#5B5BF0" opacity="0.10"/>
  </pattern>
  <marker id="arrow" markerWidth="10" markerHeight="10" refX="8" refY="5" orient="auto">
    <path d="M0 0 L10 5 L0 10 Z" fill="#6B6DF5"/>
  </marker>
</defs>
<rect x="18" y="18" width="1164" height="764" rx="54" fill="url(#softBg)"/><rect x="18" y="18" width="1164" height="764" rx="54" fill="url(#dotPattern)"/><circle cx="1040" cy="125" r="175" fill="#7B61FF" opacity=".06"/><circle cx="160" cy="690" r="210" fill="#22C2D6" opacity=".06"/>
<g filter="url(#shadowLg)">
  <rect x="220" y="128" width="720" height="500" rx="24" fill="#FFFFFF" stroke="#E7EAF3"/>
  <path d="M244 128 H916 Q940 128 940 152 V170 H220 V152 Q220 128 244 128Z" fill="#F3F5FA"/>
  <circle cx="244" cy="149" r="5" fill="#FF6B6B"/><circle cx="262" cy="149" r="5" fill="#FFC857"/><circle cx="280" cy="149" r="5" fill="#22C55E"/>
  <rect x="310" y="140" width="590" height="18" rx="9" fill="#E6E9F1"/>
</g><g><rect x="238" y="187" width="684" height="418" rx="16" fill="#FFFFFF" stroke="#E7EAF3"/><rect x="238" y="187" width="50" height="418" rx="16" fill="#F2F1FF"/><rect x="288" y="187" width="191.52" height="418" fill="#F7F8FC"/><circle cx="263.0" cy="225" r="10" fill="#7B61FF" opacity="1"/><circle cx="263.0" cy="279" r="10" fill="#8790A5" opacity="0.4"/><circle cx="263.0" cy="333" r="10" fill="#8790A5" opacity="0.4"/><circle cx="312" cy="221.0" r="11" fill="#7B61FF" opacity="0.25"/><rect x="330" y="213.0" width="129.52" height="7" rx="4" fill="#1B2542" opacity="0.35"/><rect x="330" y="227.0" width="90.664" height="6" rx="3" fill="#8790A5" opacity=".35"/><rect x="296" y="275.4" width="175.52" height="72.4" rx="10" fill="#DCD8FF" opacity=".65"/><circle cx="312" cy="297.4" r="11" fill="#7B61FF" opacity="0.85"/><rect x="330" y="289.4" width="129.52" height="7" rx="4" fill="#1B2542" opacity="0.75"/><rect x="330" y="303.4" width="90.664" height="6" rx="3" fill="#8790A5" opacity=".35"/><circle cx="312" cy="373.8" r="11" fill="#7B61FF" opacity="0.25"/><rect x="330" y="365.8" width="129.52" height="7" rx="4" fill="#1B2542" opacity="0.35"/><rect x="330" y="379.8" width="90.664" height="6" rx="3" fill="#8790A5" opacity=".35"/><circle cx="312" cy="450.2" r="11" fill="#7B61FF" opacity="0.25"/><rect x="330" y="442.2" width="129.52" height="7" rx="4" fill="#1B2542" opacity="0.35"/><rect x="330" y="456.2" width="90.664" height="6" rx="3" fill="#8790A5" opacity=".35"/><circle cx="312" cy="526.6" r="11" fill="#7B61FF" opacity="0.25"/><rect x="330" y="518.6" width="129.52" height="7" rx="4" fill="#1B2542" opacity="0.35"/><rect x="330" y="532.6" width="90.664" height="6" rx="3" fill="#8790A5" opacity=".35"/><rect x="479.52" y="187" width="442.48" height="48" fill="#FFFFFF"/><circle cx="503.52" cy="211" r="12" fill="#7B61FF" opacity=".85"/><rect x="523.52" y="203" width="110.62" height="8" rx="4" fill="#1B2542" opacity=".7"/><rect x="497.52" y="259" width="159.2928" height="22" rx="11.0" fill="#F7F8FC"/><rect x="771.256" y="296" width="132.744" height="22" rx="11.0" fill="#7B61FF"/><rect x="497.52" y="333" width="207.9656" height="30" rx="15.0" fill="#F7F8FC"/><rect x="727.008" y="378" width="176.99200000000002" height="22" rx="11.0" fill="#7B61FF"/><rect x="495.52" y="563" width="410.48" height="28" rx="14" fill="#F7F8FC" stroke="#E7EAF3"/><circle cx="891.0" cy="577" r="10" fill="#7B61FF"/></g><g filter="url(#shadowLg)"><rect x="48" y="286" width="280" height="232" rx="24" fill="url(#darkGrad)"/>
      <circle cx="76" cy="314" r="5" fill="#FF6B6B"/><circle cx="94" cy="314" r="5" fill="#FFC857"/><circle cx="112" cy="314" r="5" fill="#22C55E"/>
      <rect x="76" y="348" width="128" height="10" rx="5" fill="#AFA8FF"/>
      <rect x="76" y="374" width="204" height="8" rx="4" fill="#FFFFFF" opacity=".42"/>
      <rect x="92" y="396" width="162" height="8" rx="4" fill="#72D7E2" opacity=".75"/>
      <rect x="92" y="418" width="188" height="8" rx="4" fill="#FFFFFF" opacity=".34"/>
      <rect x="92" y="440" width="134" height="8" rx="4" fill="#F39AC3" opacity=".65"/>
      <rect x="76" y="474" width="96" height="10" rx="5" fill="#AFA8FF"/>
      <text x="76" y="338" fill="#D9D7FF" font-family="ui-monospace, SFMono-Regular, Menlo, monospace" font-size="16" font-weight="700">mount()</text>
    </g><g filter="url(#shadowLg)"><rect x="880" y="68" width="260" height="244" rx="28" fill="#FFFFFF" stroke="#E7EAF3"/>
      <text x="912" y="104" fill="#0E1730" font-family="-apple-system,BlinkMacSystemFont,Segoe UI,sans-serif" font-size="17" font-weight="800">yimsg</text>
      <rect x="912" y="122" width="150" height="8" rx="4" fill="#AEB5C7" opacity=".45"/>
      <rect x="912" y="140" width="104" height="8" rx="4" fill="#AEB5C7" opacity=".28"/>
    </g>
<g filter="url(#shadowMd)">
  <rect x="925" y="164" width="133.0" height="123.5" rx="22.799999999999997" fill="#FFFFFF" stroke="#E7EAF3"/>
  <rect x="945.9" y="184.9" width="91.19999999999999" height="23.75" rx="8.549999999999999" fill="#5B5BF0" opacity=".95"/>
  <circle cx="961.1" cy="196.775" r="3.3249999999999997" fill="#FFFFFF"/><circle cx="972.5" cy="196.775" r="3.3249999999999997" fill="#FFFFFF" opacity=".7"/>
  <rect x="945.9" y="218.15" width="91.19999999999999" height="23.75" rx="8.549999999999999" fill="#EEF0FF"/>
  <circle cx="961.1" cy="230.02499999999998" r="3.3249999999999997" fill="#5B5BF0"/><circle cx="972.5" cy="230.02499999999998" r="3.3249999999999997" fill="#5B5BF0" opacity=".45"/>
  <rect x="945.9" y="251.39999999999998" width="91.19999999999999" height="15.2" rx="7.6" fill="#F5F6FA"/>
</g><g filter="url(#shadowSm)"><path d="M1034 172 C1050.5 166.5 1063.7 166.5 1080.2 172 V194.0 C1080.2 209.95 1065.9 220.4 1057.1 224.8 C1048.3 220.4 1034 209.95 1034 194.0Z" fill="url(#brandCyan)"/><path d="M1047.75 197.3 l6.6000000000000005 6.6000000000000005 l13.200000000000001 -15.400000000000002" fill="none" stroke="#fff" stroke-width="4.4" stroke-linecap="round" stroke-linejoin="round"/></g><g filter="url(#shadowLg)"><rect x="858" y="370" width="272" height="362" rx="46" fill="#171B29"/><rect x="871" y="386" width="246" height="330" rx="34" fill="#FFFFFF"/><rect x="951" y="379" width="84" height="7" rx="4" fill="#FFFFFF" opacity=".22"/></g><g><rect x="884" y="401" width="220" height="292" rx="18" fill="#FFFFFF" stroke="#E7EAF3"/><rect x="884" y="401" width="220" height="44" rx="18" fill="#F7F8FC"/><circle cx="906" cy="423" r="10" fill="#7B61FF"/><rect x="926" y="416" width="79.2" height="8" rx="4" fill="#1B2542" opacity=".75"/><rect x="900" y="471" width="115.00000000000001" height="24" rx="12.0" fill="#F7F8FC" opacity="0.95"/><rect x="982.4" y="511" width="99.6" height="24" rx="12.0" fill="#7B61FF" opacity="1"/><rect x="900" y="551" width="143.60000000000002" height="34" rx="17.0" fill="#F7F8FC" opacity="0.95"/><rect x="960.4" y="601" width="121.6" height="24" rx="12.0" fill="#7B61FF" opacity="1"/><rect x="898" y="645" width="192" height="34" rx="17" fill="#F7F8FC" stroke="#E7EAF3"/><circle cx="1072" cy="662" r="12" fill="#7B61FF"/></g><path d="M328 400 C380 400 380 330 438 330" fill="none" stroke="#6B6DF5" stroke-width="3" stroke-dasharray="8 9" marker-end="url(#arrow)"/><path d="M940 248 C870 270 870 320 825 352" fill="none" stroke="#6B6DF5" stroke-width="3" stroke-dasharray="8 9" marker-end="url(#arrow)"/><path d="M844 590 C810 590 794 570 776 544" fill="none" stroke="#22C2D6" stroke-width="3" stroke-dasharray="8 9" marker-end="url(#arrow)"/><g filter="url(#shadowSm)"><rect x="114" y="86" width="68" height="36" rx="18" fill="#FFFFFF" stroke="#E7EAF3"/><circle cx="136" cy="104" r="6" fill="#5B5BF0"/><rect x="150" y="100" width="22" height="8" rx="4" fill="#AAB2C4" opacity=".55"/></g><g filter="url(#shadowSm)"><rect x="1046" y="320" width="68" height="36" rx="18" fill="#FFFFFF" stroke="#E7EAF3"/><circle cx="1068" cy="338" r="6" fill="#22C2D6"/><rect x="1082" y="334" width="22" height="8" rx="4" fill="#AAB2C4" opacity=".55"/></g><g filter="url(#shadowSm)"><rect x="114" y="632" width="68" height="36" rx="18" fill="#FFFFFF" stroke="#E7EAF3"/><circle cx="136" cy="650" r="6" fill="#19B980"/><rect x="150" y="646" width="22" height="8" rx="4" fill="#AAB2C4" opacity=".55"/></g></svg>