<svg xmlns="http://www.w3.org/2000/svg" width="960" height="720" viewBox="0 0 960 720" role="img" aria-labelledby="title desc">
<title id="title">Embed anywhere</title><desc id="desc">The same yimsg chat interface embedded into a public website, SaaS admin panel, and internal business system.</desc>
<defs>
  <linearGradient id="brandGrad" x1="0" y1="0" x2="1" y2="1">
    <stop offset="0" stop-color="#5B5BF0"/>
    <stop offset="1" stop-color="#7B61FF"/>
  </linearGradient>
  <linearGradient id="brandCyan" x1="0" y1="0" x2="1" y2="1">
    <stop offset="0" stop-color="#6C63FF"/>
    <stop offset="1" stop-color="#22C2D6"/>
  </linearGradient>
  <linearGradient id="softBg" x1="0" y1="0" x2="1" y2="1">
    <stop offset="0" stop-color="#FBFBFF"/>
    <stop offset="0.55" stop-color="#F6F5FF"/>
    <stop offset="1" stop-color="#F1FBFC"/>
  </linearGradient>
  <linearGradient id="darkGrad" x1="0" y1="0" x2="1" y2="1">
    <stop offset="0" stop-color="#151A2B"/>
    <stop offset="1" stop-color="#252C43"/>
  </linearGradient>
  <filter id="shadowLg" x="-40%" y="-40%" width="180%" height="180%">
    <feDropShadow dx="0" dy="18" stdDeviation="24" flood-color="#18203A" flood-opacity="0.16"/>
  </filter>
  <filter id="shadowMd" x="-40%" y="-40%" width="180%" height="180%">
    <feDropShadow dx="0" dy="10" stdDeviation="14" flood-color="#18203A" flood-opacity="0.12"/>
  </filter>
  <filter id="shadowSm" x="-40%" y="-40%" width="180%" height="180%">
    <feDropShadow dx="0" dy="5" stdDeviation="8" flood-color="#18203A" flood-opacity="0.10"/>
  </filter>
  <pattern id="dotPattern" width="28" height="28" patternUnits="userSpaceOnUse">
    <circle cx="2" cy="2" r="1.4" fill="#5B5BF0" opacity="0.10"/>
  </pattern>
  <marker id="arrow" markerWidth="10" markerHeight="10" refX="8" refY="5" orient="auto">
    <path d="M0 0 L10 5 L0 10 Z" fill="#6B6DF5"/>
  </marker>
</defs>
<rect x="16" y="16" width="928" height="688" rx="48" fill="url(#softBg)"/><circle cx="150" cy="150" r="130" fill="#5B5BF0" opacity=".06"/><circle cx="820" cy="560" r="180" fill="#22C2D6" opacity=".06"/><g filter="url(#shadowLg)"><circle cx="480" cy="360" r="92" fill="#FFFFFF" stroke="#E7EAF3"/><circle cx="480" cy="360" r="66" fill="url(#brandGrad)"/><text x="480" y="371" text-anchor="middle" fill="#FFFFFF" font-family="-apple-system,BlinkMacSystemFont,Segoe UI,sans-serif" font-size="28" font-weight="850">yimsg</text></g>
<g filter="url(#shadowLg)">
  <rect x="62" y="78" width="350" height="246" rx="20" fill="#FFFFFF" stroke="#E7EAF3"/>
  <path d="M82 78 H392 Q412 78 412 98 V112 H62 V98 Q62 78 82 78Z" fill="#F3F5FA"/>
  <circle cx="86" cy="99" r="5" fill="#FF6B6B"/><circle cx="104" cy="99" r="5" fill="#FFC857"/><circle cx="122" cy="99" r="5" fill="#22C55E"/>
  <rect x="152" y="90" width="220" height="18" rx="9" fill="#E6E9F1"/>
</g><rect x="82" y="132" width="140" height="12" rx="6" fill="#27314F" opacity=".72"/><rect x="82" y="156" width="190" height="8" rx="4" fill="#AAB2C4" opacity=".42"/><rect x="82" y="176" width="150" height="8" rx="4" fill="#AAB2C4" opacity=".28"/><rect x="82" y="214" width="112" height="34" rx="17" fill="url(#brandGrad)"/><g><rect x="242" y="124" width="148" height="176" rx="18" fill="#FFFFFF" stroke="#E7EAF3"/><rect x="242" y="124" width="148" height="44" rx="18" fill="#F7F8FC"/><circle cx="264" cy="146" r="10" fill="#7B61FF"/><rect x="284" y="139" width="53.28" height="8" rx="4" fill="#1B2542" opacity=".75"/><rect x="258" y="194" width="75.4" height="24" rx="12.0" fill="#F7F8FC" opacity="0.95"/><rect x="302.96000000000004" y="234" width="65.03999999999999" height="24" rx="12.0" fill="#7B61FF" opacity="1"/><rect x="258" y="274" width="94.64" height="34" rx="17.0" fill="#F7F8FC" opacity="0.95"/><rect x="288.16" y="324" width="79.83999999999999" height="24" rx="12.0" fill="#7B61FF" opacity="1"/><rect x="256" y="252" width="120" height="34" rx="17" fill="#F7F8FC" stroke="#E7EAF3"/><circle cx="358" cy="269" r="12" fill="#7B61FF"/></g>
<g filter="url(#shadowLg)">
  <rect x="548" y="76" width="350" height="246" rx="20" fill="#FFFFFF" stroke="#E7EAF3"/>
  <path d="M568 76 H878 Q898 76 898 96 V110 H548 V96 Q548 76 568 76Z" fill="#F3F5FA"/>
  <circle cx="572" cy="97" r="5" fill="#FF6B6B"/><circle cx="590" cy="97" r="5" fill="#FFC857"/><circle cx="608" cy="97" r="5" fill="#22C55E"/>
  <rect x="638" y="88" width="220" height="18" rx="9" fill="#E6E9F1"/>
</g><rect x="568" y="124" width="62" height="176" rx="14" fill="#F0F1F6"/><rect x="582" y="145" width="34" height="8" rx="4" fill="#AAB2C4" opacity="0.55"/><rect x="582" y="179" width="34" height="8" rx="4" fill="#AAB2C4" opacity="0.28"/><rect x="582" y="213" width="34" height="8" rx="4" fill="#AAB2C4" opacity="0.28"/><rect x="582" y="247" width="34" height="8" rx="4" fill="#AAB2C4" opacity="0.28"/><rect x="646" y="126" width="104" height="12" rx="6" fill="#27314F" opacity=".72"/><rect x="646" y="150" width="220" height="54" rx="14" fill="#F7F8FC"/><rect x="646" y="216" width="90" height="66" rx="14" fill="#EEF0FF"/><rect x="748" y="216" width="118" height="66" rx="14" fill="#F3FBFC"/><g><rect x="708" y="138" width="168" height="154" rx="16" fill="#FFFFFF" stroke="#E7EAF3"/><rect x="708" y="138" width="42" height="154" rx="16" fill="#F2F1FF"/><rect x="750" y="138" width="43.68" height="154" fill="#F7F8FC"/><circle cx="729.0" cy="176" r="10" fill="#7B61FF" opacity="1"/><circle cx="729.0" cy="230" r="10" fill="#8790A5" opacity="0.4"/><circle cx="729.0" cy="284" r="10" fill="#8790A5" opacity="0.4"/><circle cx="774" cy="172.0" r="11" fill="#7B61FF" opacity="0.25"/><rect x="792" y="164.0" width="-18.32" height="7" rx="4" fill="#1B2542" opacity="0.35"/><rect x="792" y="178.0" width="-12.824" height="6" rx="3" fill="#8790A5" opacity=".35"/><rect x="758" y="173.6" width="27.68" height="19.6" rx="10" fill="#DCD8FF" opacity=".65"/><circle cx="774" cy="195.6" r="11" fill="#7B61FF" opacity="0.85"/><rect x="792" y="187.6" width="-18.32" height="7" rx="4" fill="#1B2542" opacity="0.75"/><rect x="792" y="201.6" width="-12.824" height="6" rx="3" fill="#8790A5" opacity=".35"/><circle cx="774" cy="219.2" r="11" fill="#7B61FF" opacity="0.25"/><rect x="792" y="211.2" width="-18.32" height="7" rx="4" fill="#1B2542" opacity="0.35"/><rect x="792" y="225.2" width="-12.824" height="6" rx="3" fill="#8790A5" opacity=".35"/><circle cx="774" cy="242.8" r="11" fill="#7B61FF" opacity="0.25"/><rect x="792" y="234.8" width="-18.32" height="7" rx="4" fill="#1B2542" opacity="0.35"/><rect x="792" y="248.8" width="-12.824" height="6" rx="3" fill="#8790A5" opacity=".35"/><circle cx="774" cy="266.4" r="11" fill="#7B61FF" opacity="0.25"/><rect x="792" y="258.4" width="-18.32" height="7" rx="4" fill="#1B2542" opacity="0.35"/><rect x="792" y="272.4" width="-12.824" height="6" rx="3" fill="#8790A5" opacity=".35"/><rect x="793.68" y="138" width="82.32" height="48" fill="#FFFFFF"/><circle cx="817.68" cy="162" r="12" fill="#7B61FF" opacity=".85"/><rect x="837.68" y="154" width="20.58" height="8" rx="4" fill="#1B2542" opacity=".7"/><rect x="811.68" y="210" width="29.635199999999998" height="22" rx="11.0" fill="#F7F8FC"/><rect x="833.304" y="247" width="24.695999999999998" height="22" rx="11.0" fill="#7B61FF"/><rect x="811.68" y="284" width="38.6904" height="30" rx="15.0" fill="#F7F8FC"/><rect x="825.072" y="329" width="32.928" height="22" rx="11.0" fill="#7B61FF"/><rect x="809.68" y="250" width="50.31999999999999" height="28" rx="14" fill="#F7F8FC" stroke="#E7EAF3"/><circle cx="845.0" cy="264" r="10" fill="#7B61FF"/></g>
<g filter="url(#shadowLg)">
  <rect x="72" y="426" width="350" height="210" rx="20" fill="#FFFFFF" stroke="#E7EAF3"/>
  <path d="M92 426 H402 Q422 426 422 446 V460 H72 V446 Q72 426 92 426Z" fill="#F3F5FA"/>
  <circle cx="96" cy="447" r="5" fill="#FF6B6B"/><circle cx="114" cy="447" r="5" fill="#FFC857"/><circle cx="132" cy="447" r="5" fill="#22C55E"/>
  <rect x="162" y="438" width="220" height="18" rx="9" fill="#E6E9F1"/>
</g><rect x="92" y="474" width="110" height="10" rx="5" fill="#27314F" opacity=".7"/><rect x="92" y="496" width="190" height="8" rx="4" fill="#AAB2C4" opacity=".32"/><rect x="92" y="530" width="142" height="78" rx="14" fill="#F6F7FC"/><rect x="246" y="530" width="154" height="78" rx="14" fill="#EEF0FF"/><g><rect x="248" y="446" width="152" height="168" rx="16" fill="#FFFFFF" stroke="#E7EAF3"/><rect x="248" y="446" width="42" height="168" rx="16" fill="#F2F1FF"/><rect x="290" y="446" width="39.52" height="168" fill="#F7F8FC"/><circle cx="269.0" cy="484" r="10" fill="#7B61FF" opacity="1"/><circle cx="269.0" cy="538" r="10" fill="#8790A5" opacity="0.4"/><circle cx="269.0" cy="592" r="10" fill="#8790A5" opacity="0.4"/><circle cx="314" cy="480.0" r="11" fill="#7B61FF" opacity="0.25"/><rect x="332" y="472.0" width="-22.479999999999997" height="7" rx="4" fill="#1B2542" opacity="0.35"/><rect x="332" y="486.0" width="-15.735999999999997" height="6" rx="3" fill="#8790A5" opacity=".35"/><rect x="298" y="484.4" width="23.520000000000003" height="22.4" rx="10" fill="#DCD8FF" opacity=".65"/><circle cx="314" cy="506.4" r="11" fill="#7B61FF" opacity="0.85"/><rect x="332" y="498.4" width="-22.479999999999997" height="7" rx="4" fill="#1B2542" opacity="0.75"/><rect x="332" y="512.4" width="-15.735999999999997" height="6" rx="3" fill="#8790A5" opacity=".35"/><circle cx="314" cy="532.8" r="11" fill="#7B61FF" opacity="0.25"/><rect x="332" y="524.8" width="-22.479999999999997" height="7" rx="4" fill="#1B2542" opacity="0.35"/><rect x="332" y="538.8" width="-15.735999999999997" height="6" rx="3" fill="#8790A5" opacity=".35"/><circle cx="314" cy="559.2" r="11" fill="#7B61FF" opacity="0.25"/><rect x="332" y="551.2" width="-22.479999999999997" height="7" rx="4" fill="#1B2542" opacity="0.35"/><rect x="332" y="565.2" width="-15.735999999999997" height="6" rx="3" fill="#8790A5" opacity=".35"/><circle cx="314" cy="585.6" r="11" fill="#7B61FF" opacity="0.25"/><rect x="332" y="577.6" width="-22.479999999999997" height="7" rx="4" fill="#1B2542" opacity="0.35"/><rect x="332" y="591.6" width="-15.735999999999997" height="6" rx="3" fill="#8790A5" opacity=".35"/><rect x="329.52" y="446" width="70.47999999999999" height="48" fill="#FFFFFF"/><circle cx="353.52" cy="470" r="12" fill="#7B61FF" opacity=".85"/><rect x="373.52" y="462" width="17.619999999999997" height="8" rx="4" fill="#1B2542" opacity=".7"/><rect x="347.52" y="518" width="25.372799999999994" height="22" rx="11.0" fill="#F7F8FC"/><rect x="360.856" y="555" width="21.143999999999995" height="22" rx="11.0" fill="#7B61FF"/><rect x="347.52" y="592" width="33.12559999999999" height="30" rx="15.0" fill="#F7F8FC"/><rect x="353.808" y="637" width="28.191999999999997" height="22" rx="11.0" fill="#7B61FF"/><rect x="345.52" y="572" width="38.47999999999999" height="28" rx="14" fill="#F7F8FC" stroke="#E7EAF3"/><circle cx="369.0" cy="586" r="10" fill="#7B61FF"/></g><g filter="url(#shadowLg)"><rect x="670" y="405" width="214" height="268" rx="38" fill="#171B29"/><rect x="682" y="418" width="190" height="242" rx="28" fill="#FFFFFF"/></g><g><rect x="694" y="434" width="166" height="210" rx="18" fill="#FFFFFF" stroke="#E7EAF3"/><rect x="694" y="434" width="166" height="44" rx="18" fill="#F7F8FC"/><circle cx="716" cy="456" r="10" fill="#7B61FF"/><rect x="736" y="449" width="59.76" height="8" rx="4" fill="#1B2542" opacity=".75"/><rect x="710" y="504" width="85.30000000000001" height="24" rx="12.0" fill="#F7F8FC" opacity="0.95"/><rect x="764.32" y="544" width="73.67999999999999" height="24" rx="12.0" fill="#7B61FF" opacity="1"/><rect x="710" y="584" width="106.88000000000001" height="34" rx="17.0" fill="#F7F8FC" opacity="0.95"/><rect x="747.72" y="634" width="90.27999999999999" height="24" rx="12.0" fill="#7B61FF" opacity="1"/><rect x="708" y="596" width="138" height="34" rx="17" fill="#F7F8FC" stroke="#E7EAF3"/><circle cx="828" cy="613" r="12" fill="#7B61FF"/></g><path d="M408 264 C440 280 430 310 434 328" fill="none" stroke="#6B6DF5" stroke-width="3" stroke-dasharray="8 9" marker-end="url(#arrow)"/><path d="M548 266 C520 282 525 312 526 330" fill="none" stroke="#6B6DF5" stroke-width="3" stroke-dasharray="8 9" marker-end="url(#arrow)"/><path d="M422 500 C448 474 438 430 448 398" fill="none" stroke="#6B6DF5" stroke-width="3" stroke-dasharray="8 9" marker-end="url(#arrow)"/><path d="M670 500 C620 480 590 430 545 394" fill="none" stroke="#6B6DF5" stroke-width="3" stroke-dasharray="8 9" marker-end="url(#arrow)"/></svg>