<svg xmlns="http://www.w3.org/2000/svg" width="960" height="720" viewBox="0 0 960 720" role="img" aria-labelledby="title desc">
<title id="title">Customize everything</title><desc id="desc">Open UIKit and SDK layers producing branded light, dark, and custom product experiences.</desc>
<defs>
  <linearGradient id="brandGrad" x1="0" y1="0" x2="1" y2="1">
    <stop offset="0" stop-color="#5B5BF0"/>
    <stop offset="1" stop-color="#7B61FF"/>
  </linearGradient>
  <linearGradient id="brandCyan" x1="0" y1="0" x2="1" y2="1">
    <stop offset="0" stop-color="#6C63FF"/>
    <stop offset="1" stop-color="#22C2D6"/>
  </linearGradient>
  <linearGradient id="softBg" x1="0" y1="0" x2="1" y2="1">
    <stop offset="0" stop-color="#FBFBFF"/>
    <stop offset="0.55" stop-color="#F6F5FF"/>
    <stop offset="1" stop-color="#F1FBFC"/>
  </linearGradient>
  <linearGradient id="darkGrad" x1="0" y1="0" x2="1" y2="1">
    <stop offset="0" stop-color="#151A2B"/>
    <stop offset="1" stop-color="#252C43"/>
  </linearGradient>
  <filter id="shadowLg" x="-40%" y="-40%" width="180%" height="180%">
    <feDropShadow dx="0" dy="18" stdDeviation="24" flood-color="#18203A" flood-opacity="0.16"/>
  </filter>
  <filter id="shadowMd" x="-40%" y="-40%" width="180%" height="180%">
    <feDropShadow dx="0" dy="10" stdDeviation="14" flood-color="#18203A" flood-opacity="0.12"/>
  </filter>
  <filter id="shadowSm" x="-40%" y="-40%" width="180%" height="180%">
    <feDropShadow dx="0" dy="5" stdDeviation="8" flood-color="#18203A" flood-opacity="0.10"/>
  </filter>
  <pattern id="dotPattern" width="28" height="28" patternUnits="userSpaceOnUse">
    <circle cx="2" cy="2" r="1.4" fill="#5B5BF0" opacity="0.10"/>
  </pattern>
  <marker id="arrow" markerWidth="10" markerHeight="10" refX="8" refY="5" orient="auto">
    <path d="M0 0 L10 5 L0 10 Z" fill="#6B6DF5"/>
  </marker>
</defs>
<rect x="16" y="16" width="928" height="688" rx="48" fill="url(#softBg)"/><rect x="16" y="16" width="928" height="688" rx="48" fill="url(#dotPattern)"/><g filter="url(#shadowMd)"><rect x="70" y="200" width="220" height="92" rx="24" fill="#FFFFFF" stroke="#E7EAF3"/><rect x="70" y="200" width="14" height="92" rx="7" fill="#5B5BF0"/><circle cx="116" cy="246" r="20" fill="#5B5BF0" opacity=".14"/><circle cx="116" cy="246" r="8" fill="#5B5BF0"/><text x="154" y="253" fill="#0E1730" font-family="-apple-system,BlinkMacSystemFont,Segoe UI,sans-serif" font-size="22" font-weight="800">UIKit</text></g><g filter="url(#shadowMd)"><rect x="70" y="260" width="220" height="92" rx="24" fill="#FFFFFF" stroke="#E7EAF3"/><rect x="70" y="260" width="14" height="92" rx="7" fill="#7B61FF"/><circle cx="116" cy="306" r="20" fill="#7B61FF" opacity=".14"/><circle cx="116" cy="306" r="8" fill="#7B61FF"/><text x="154" y="313" fill="#0E1730" font-family="-apple-system,BlinkMacSystemFont,Segoe UI,sans-serif" font-size="22" font-weight="800">SDK</text></g><g filter="url(#shadowMd)"><rect x="70" y="320" width="220" height="92" rx="24" fill="#FFFFFF" stroke="#E7EAF3"/><rect x="70" y="320" width="14" height="92" rx="7" fill="#22C2D6"/><circle cx="116" cy="366" r="20" fill="#22C2D6" opacity=".14"/><circle cx="116" cy="366" r="8" fill="#22C2D6"/><text x="154" y="373" fill="#0E1730" font-family="-apple-system,BlinkMacSystemFont,Segoe UI,sans-serif" font-size="22" font-weight="800">WS</text></g><g filter="url(#shadowMd)"><rect x="330" y="160" width="250" height="400" rx="28" fill="#FFFFFF" stroke="#E7EAF3"/>
      <text x="366" y="205" fill="#0E1730" font-family="-apple-system,BlinkMacSystemFont,Segoe UI,sans-serif" font-size="18" font-weight="800">yimsg</text>
      <rect x="366" y="228" width="150" height="8" rx="4" fill="#AAB2C4" opacity=".35"/>
      <rect x="366" y="270" width="178" height="58" rx="16" fill="#F6F7FC"/><circle cx="394" cy="299" r="14" fill="#5B5BF0"/><rect x="420" y="286" width="88" height="8" rx="4" fill="#26314F" opacity=".64"/><rect x="420" y="304" width="62" height="7" rx="4" fill="#8B93A8" opacity=".35"/>
      <rect x="366" y="346" width="178" height="58" rx="16" fill="#F6F7FC"/><circle cx="394" cy="375" r="14" fill="#22C2D6"/><rect x="420" y="362" width="88" height="8" rx="4" fill="#26314F" opacity=".64"/><rect x="420" y="380" width="62" height="7" rx="4" fill="#8B93A8" opacity=".35"/>
      <rect x="366" y="426" width="178" height="18" rx="9" fill="#EEEFFF"/><circle cx="500" cy="435" r="12" fill="#5B5BF0"/>
      <rect x="366" y="466" width="70" height="30" rx="15" fill="#5B5BF0"/><rect x="446" y="466" width="70" height="30" rx="15" fill="#171B29"/><rect x="366" y="514" width="150" height="8" rx="4" fill="#AAB2C4" opacity=".32"/>
    </g><g filter="url(#shadowLg)"><rect x="626" y="88" width="270" height="174" rx="22" fill="#FFFFFF" stroke="#E7EAF3"/></g><g><rect x="640" y="104" width="242" height="144" rx="16" fill="#FFFFFF" stroke="#E7EAF3"/><rect x="640" y="104" width="42" height="144" rx="16" fill="#F2F1FF"/><rect x="682" y="104" width="62.92" height="144" fill="#F7F8FC"/><circle cx="661.0" cy="142" r="10" fill="#7B61FF" opacity="1"/><circle cx="661.0" cy="196" r="10" fill="#8790A5" opacity="0.4"/><circle cx="661.0" cy="250" r="10" fill="#8790A5" opacity="0.4"/><circle cx="706" cy="138.0" r="11" fill="#7B61FF" opacity="0.25"/><rect x="724" y="130.0" width="0.9200000000000017" height="7" rx="4" fill="#1B2542" opacity="0.35"/><rect x="724" y="144.0" width="0.6440000000000011" height="6" rx="3" fill="#8790A5" opacity=".35"/><rect x="690" y="137.6" width="46.92" height="17.6" rx="10" fill="#DCD8FF" opacity=".65"/><circle cx="706" cy="159.6" r="11" fill="#7B61FF" opacity="0.85"/><rect x="724" y="151.6" width="0.9200000000000017" height="7" rx="4" fill="#1B2542" opacity="0.75"/><rect x="724" y="165.6" width="0.6440000000000011" height="6" rx="3" fill="#8790A5" opacity=".35"/><circle cx="706" cy="181.2" r="11" fill="#7B61FF" opacity="0.25"/><rect x="724" y="173.2" width="0.9200000000000017" height="7" rx="4" fill="#1B2542" opacity="0.35"/><rect x="724" y="187.2" width="0.6440000000000011" height="6" rx="3" fill="#8790A5" opacity=".35"/><circle cx="706" cy="202.8" r="11" fill="#7B61FF" opacity="0.25"/><rect x="724" y="194.8" width="0.9200000000000017" height="7" rx="4" fill="#1B2542" opacity="0.35"/><rect x="724" y="208.8" width="0.6440000000000011" height="6" rx="3" fill="#8790A5" opacity=".35"/><circle cx="706" cy="224.4" r="11" fill="#7B61FF" opacity="0.25"/><rect x="724" y="216.4" width="0.9200000000000017" height="7" rx="4" fill="#1B2542" opacity="0.35"/><rect x="724" y="230.4" width="0.6440000000000011" height="6" rx="3" fill="#8790A5" opacity=".35"/><rect x="744.92" y="104" width="137.07999999999998" height="48" fill="#FFFFFF"/><circle cx="768.92" cy="128" r="12" fill="#7B61FF" opacity=".85"/><rect x="788.92" y="120" width="34.269999999999996" height="8" rx="4" fill="#1B2542" opacity=".7"/><rect x="762.92" y="176" width="49.34879999999999" height="22" rx="11.0" fill="#F7F8FC"/><rect x="822.876" y="213" width="41.123999999999995" height="22" rx="11.0" fill="#7B61FF"/><rect x="762.92" y="250" width="64.42759999999998" height="30" rx="15.0" fill="#F7F8FC"/><rect x="809.168" y="295" width="54.831999999999994" height="22" rx="11.0" fill="#7B61FF"/><rect x="760.92" y="206" width="105.07999999999998" height="28" rx="14" fill="#F7F8FC" stroke="#E7EAF3"/><circle cx="851.0" cy="220" r="10" fill="#7B61FF"/></g><g filter="url(#shadowLg)"><rect x="646" y="282" width="270" height="174" rx="22" fill="#171C2D" stroke="#303A58"/></g><g><rect x="660" y="298" width="242" height="144" rx="16" fill="#171C2D" stroke="#323B57"/><rect x="660" y="298" width="42" height="144" rx="16" fill="#111625"/><rect x="702" y="298" width="62.92" height="144" fill="#20273B"/><circle cx="681.0" cy="336" r="10" fill="#7B61FF" opacity="1"/><circle cx="681.0" cy="390" r="10" fill="#8E9AB7" opacity="0.4"/><circle cx="681.0" cy="444" r="10" fill="#8E9AB7" opacity="0.4"/><circle cx="726" cy="332.0" r="11" fill="#7B61FF" opacity="0.25"/><rect x="744" y="324.0" width="0.9200000000000017" height="7" rx="4" fill="#F5F7FF" opacity="0.35"/><rect x="744" y="338.0" width="0.6440000000000011" height="6" rx="3" fill="#8E9AB7" opacity=".35"/><rect x="710" y="331.6" width="46.92" height="17.6" rx="10" fill="#6EE7F2" opacity=".65"/><circle cx="726" cy="353.6" r="11" fill="#7B61FF" opacity="0.85"/><rect x="744" y="345.6" width="0.9200000000000017" height="7" rx="4" fill="#F5F7FF" opacity="0.75"/><rect x="744" y="359.6" width="0.6440000000000011" height="6" rx="3" fill="#8E9AB7" opacity=".35"/><circle cx="726" cy="375.2" r="11" fill="#7B61FF" opacity="0.25"/><rect x="744" y="367.2" width="0.9200000000000017" height="7" rx="4" fill="#F5F7FF" opacity="0.35"/><rect x="744" y="381.2" width="0.6440000000000011" height="6" rx="3" fill="#8E9AB7" opacity=".35"/><circle cx="726" cy="396.8" r="11" fill="#7B61FF" opacity="0.25"/><rect x="744" y="388.8" width="0.9200000000000017" height="7" rx="4" fill="#F5F7FF" opacity="0.35"/><rect x="744" y="402.8" width="0.6440000000000011" height="6" rx="3" fill="#8E9AB7" opacity=".35"/><circle cx="726" cy="418.4" r="11" fill="#7B61FF" opacity="0.25"/><rect x="744" y="410.4" width="0.9200000000000017" height="7" rx="4" fill="#F5F7FF" opacity="0.35"/><rect x="744" y="424.4" width="0.6440000000000011" height="6" rx="3" fill="#8E9AB7" opacity=".35"/><rect x="764.92" y="298" width="137.07999999999998" height="48" fill="#171C2D"/><circle cx="788.92" cy="322" r="12" fill="#7B61FF" opacity=".85"/><rect x="808.92" y="314" width="34.269999999999996" height="8" rx="4" fill="#F5F7FF" opacity=".7"/><rect x="782.92" y="370" width="49.34879999999999" height="22" rx="11.0" fill="#20273B"/><rect x="842.876" y="407" width="41.123999999999995" height="22" rx="11.0" fill="#7B61FF"/><rect x="782.92" y="444" width="64.42759999999998" height="30" rx="15.0" fill="#20273B"/><rect x="829.168" y="489" width="54.831999999999994" height="22" rx="11.0" fill="#7B61FF"/><rect x="780.92" y="400" width="105.07999999999998" height="28" rx="14" fill="#20273B" stroke="#323B57"/><circle cx="871.0" cy="414" r="10" fill="#7B61FF"/></g><g filter="url(#shadowLg)"><rect x="616" y="478" width="270" height="174" rx="22" fill="#FFFFFF" stroke="#E7EAF3"/></g><g><rect x="630" y="494" width="242" height="144" rx="16" fill="#FFFFFF" stroke="#E7EAF3"/><rect x="630" y="494" width="42" height="144" rx="16" fill="#F2F1FF"/><rect x="672" y="494" width="62.92" height="144" fill="#F7F8FC"/><circle cx="651.0" cy="532" r="10" fill="#2D7EF7" opacity="1"/><circle cx="651.0" cy="586" r="10" fill="#8790A5" opacity="0.4"/><circle cx="651.0" cy="640" r="10" fill="#8790A5" opacity="0.4"/><circle cx="696" cy="528.0" r="11" fill="#2D7EF7" opacity="0.25"/><rect x="714" y="520.0" width="0.9200000000000017" height="7" rx="4" fill="#1B2542" opacity="0.35"/><rect x="714" y="534.0" width="0.6440000000000011" height="6" rx="3" fill="#8790A5" opacity=".35"/><rect x="680" y="527.6" width="46.92" height="17.6" rx="10" fill="#DCD8FF" opacity=".65"/><circle cx="696" cy="549.6" r="11" fill="#2D7EF7" opacity="0.85"/><rect x="714" y="541.6" width="0.9200000000000017" height="7" rx="4" fill="#1B2542" opacity="0.75"/><rect x="714" y="555.6" width="0.6440000000000011" height="6" rx="3" fill="#8790A5" opacity=".35"/><circle cx="696" cy="571.2" r="11" fill="#2D7EF7" opacity="0.25"/><rect x="714" y="563.2" width="0.9200000000000017" height="7" rx="4" fill="#1B2542" opacity="0.35"/><rect x="714" y="577.2" width="0.6440000000000011" height="6" rx="3" fill="#8790A5" opacity=".35"/><circle cx="696" cy="592.8" r="11" fill="#2D7EF7" opacity="0.25"/><rect x="714" y="584.8" width="0.9200000000000017" height="7" rx="4" fill="#1B2542" opacity="0.35"/><rect x="714" y="598.8" width="0.6440000000000011" height="6" rx="3" fill="#8790A5" opacity=".35"/><circle cx="696" cy="614.4" r="11" fill="#2D7EF7" opacity="0.25"/><rect x="714" y="606.4" width="0.9200000000000017" height="7" rx="4" fill="#1B2542" opacity="0.35"/><rect x="714" y="620.4" width="0.6440000000000011" height="6" rx="3" fill="#8790A5" opacity=".35"/><rect x="734.92" y="494" width="137.07999999999998" height="48" fill="#FFFFFF"/><circle cx="758.92" cy="518" r="12" fill="#2D7EF7" opacity=".85"/><rect x="778.92" y="510" width="34.269999999999996" height="8" rx="4" fill="#1B2542" opacity=".7"/><rect x="752.92" y="566" width="49.34879999999999" height="22" rx="11.0" fill="#F7F8FC"/><rect x="812.876" y="603" width="41.123999999999995" height="22" rx="11.0" fill="#2D7EF7"/><rect x="752.92" y="640" width="64.42759999999998" height="30" rx="15.0" fill="#F7F8FC"/><rect x="799.168" y="685" width="54.831999999999994" height="22" rx="11.0" fill="#2D7EF7"/><rect x="750.92" y="596" width="105.07999999999998" height="28" rx="14" fill="#F7F8FC" stroke="#E7EAF3"/><circle cx="841.0" cy="610" r="10" fill="#2D7EF7"/></g><path d="M290 246 C330 246 318 212 330 212" fill="none" stroke="#6B6DF5" stroke-width="3" stroke-dasharray="7 8" marker-end="url(#arrow)"/><path d="M290 306 C330 306 318 366 330 366" fill="none" stroke="#6B6DF5" stroke-width="3" stroke-dasharray="7 8" marker-end="url(#arrow)"/><path d="M290 366 C330 366 318 550 330 550" fill="none" stroke="#6B6DF5" stroke-width="3" stroke-dasharray="7 8" marker-end="url(#arrow)"/><path d="M580 360 C620 360 600 178 626 178" fill="none" stroke="#6B6DF5" stroke-width="3" stroke-dasharray="7 8" marker-end="url(#arrow)"/><path d="M580 360 C620 360 600 370 626 370" fill="none" stroke="#6B6DF5" stroke-width="3" stroke-dasharray="7 8" marker-end="url(#arrow)"/><path d="M580 360 C620 360 600 566 626 566" fill="none" stroke="#6B6DF5" stroke-width="3" stroke-dasharray="7 8" marker-end="url(#arrow)"/></svg>